<svg width="1393" height="782" viewBox="0 0 1393 782" fill="none" xmlns="http://www.w3.org/2000/svg">
<path d="M0 12C0 5.37258 5.37258 0 12 0H255C261.627 0 267 5.37258 267 12V372C267 378.627 261.627 384 255 384H12C5.37258 384 0 378.627 0 372V12Z" fill="url(#paint0_linear_258_2077)" fill-opacity="0.04"/>
<path d="M0 411C0 404.373 5.37258 399 12 399H255C261.627 399 267 404.373 267 411V614C267 620.627 261.627 626 255 626H12C5.37258 626 0 620.627 0 614V411Z" fill="url(#paint1_linear_258_2077)" fill-opacity="0.04"/>
<path d="M0 770C0 776.627 5.37258 782 12 782H255C261.627 782 267 776.627 267 770V653C267 646.373 261.627 641 255 641H12C5.37258 641 0 646.373 0 653V770Z" fill="url(#paint2_linear_258_2077)" fill-opacity="0.04"/>
<path d="M282 12C282 5.37259 287.373 0 294 0H536C542.627 0 548 5.37258 548 12V178C548 184.627 542.627 190 536 190H294C287.373 190 282 184.627 282 178V12Z" fill="url(#paint3_linear_258_2077)" fill-opacity="0.04"/>
<path d="M282 217C282 210.373 287.373 205 294 205H536C542.627 205 548 210.373 548 217V466C548 472.627 542.627 478 536 478H294C287.373 478 282 472.627 282 466V217Z" fill="url(#paint4_linear_258_2077)" fill-opacity="0.04"/>
<path d="M282 770C282 776.627 287.373 782 294 782H536C542.627 782 548 776.627 548 770V505C548 498.373 542.627 493 536 493H294C287.373 493 282 498.373 282 505V770Z" fill="url(#paint5_linear_258_2077)" fill-opacity="0.04"/>
<path d="M563.2 12C563.2 5.37259 568.573 0 575.2 0H817.8C824.428 0 829.8 5.37258 829.8 12V227C829.8 233.627 824.428 239 817.8 239H575.2C568.573 239 563.2 233.627 563.2 227V12Z" fill="url(#paint6_linear_258_2077)" fill-opacity="0.04"/>
<path d="M563 266C563 259.373 568.373 254 575 254H818C824.627 254 830 259.373 830 266V548C830 554.627 824.627 560 818 560H575C568.373 560 563 554.627 563 548V266Z" fill="url(#paint7_linear_258_2077)" fill-opacity="0.04"/>
<path d="M563 770C563 776.627 568.373 782 575 782H818C824.627 782 830 776.627 830 770V587C830 580.373 824.627 575 818 575H575C568.373 575 563 580.373 563 587V770Z" fill="url(#paint8_linear_258_2077)" fill-opacity="0.04"/>
<path d="M845 12C845 5.37258 850.373 0 857 0H1099C1105.63 0 1111 5.37258 1111 12V289C1111 295.627 1105.63 301 1099 301H857C850.373 301 845 295.627 845 289V12Z" fill="url(#paint9_linear_258_2077)" fill-opacity="0.04"/>
<path d="M845 328C845 321.373 850.373 316 857 316H1099C1105.63 316 1111 321.373 1111 328V499C1111 505.627 1105.63 511 1099 511H857C850.373 511 845 505.627 845 499V328Z" fill="url(#paint10_linear_258_2077)" fill-opacity="0.04"/>
<path d="M845 770C845 776.627 850.373 782 857 782H1099C1105.63 782 1111 776.627 1111 770V538C1111 531.373 1105.63 526 1099 526H857C850.373 526 845 531.373 845 538V770Z" fill="url(#paint11_linear_258_2077)" fill-opacity="0.04"/>
<path d="M1126.4 12C1126.4 5.37259 1131.77 0 1138.4 0H1381C1387.63 0 1393 5.37258 1393 12V227C1393 233.627 1387.63 239 1381 239H1138.4C1131.77 239 1126.4 233.627 1126.4 227V12Z" fill="url(#paint12_linear_258_2077)" fill-opacity="0.04"/>
<path d="M1126 266C1126 259.373 1131.37 254 1138 254H1381C1387.63 254 1393 259.373 1393 266V526C1393 532.627 1387.63 538 1381 538H1138C1131.37 538 1126 532.627 1126 526V266Z" fill="url(#paint13_linear_258_2077)" fill-opacity="0.04"/>
<path d="M1126 770C1126 776.627 1131.37 782 1138 782H1381C1387.63 782 1393 776.627 1393 770V565C1393 558.373 1387.63 553 1381 553H1138C1131.37 553 1126 558.373 1126 565V770Z" fill="url(#paint14_linear_258_2077)" fill-opacity="0.04"/>
<defs>
<linearGradient id="paint0_linear_258_2077" x1="696.5" y1="0" x2="696.5" y2="782" gradientUnits="userSpaceOnUse">
<stop stop-color="white"/>
<stop offset="0.775687" stop-color="white" stop-opacity="0"/>
</linearGradient>
<linearGradient id="paint1_linear_258_2077" x1="696.5" y1="0" x2="696.5" y2="782" gradientUnits="userSpaceOnUse">
<stop stop-color="white"/>
<stop offset="0.775687" stop-color="white" stop-opacity="0"/>
</linearGradient>
<linearGradient id="paint2_linear_258_2077" x1="696.5" y1="0" x2="696.5" y2="782" gradientUnits="userSpaceOnUse">
<stop stop-color="white"/>
<stop offset="0.775687" stop-color="white" stop-opacity="0"/>
</linearGradient>
<linearGradient id="paint3_linear_258_2077" x1="696.5" y1="0" x2="696.5" y2="782" gradientUnits="userSpaceOnUse">
<stop stop-color="white"/>
<stop offset="0.775687" stop-color="white" stop-opacity="0"/>
</linearGradient>
<linearGradient id="paint4_linear_258_2077" x1="696.5" y1="0" x2="696.5" y2="782" gradientUnits="userSpaceOnUse">
<stop stop-color="white"/>
<stop offset="0.775687" stop-color="white" stop-opacity="0"/>
</linearGradient>
<linearGradient id="paint5_linear_258_2077" x1="696.5" y1="0" x2="696.5" y2="782" gradientUnits="userSpaceOnUse">
<stop stop-color="white"/>
<stop offset="0.775687" stop-color="white" stop-opacity="0"/>
</linearGradient>
<linearGradient id="paint6_linear_258_2077" x1="696.5" y1="0" x2="696.5" y2="782" gradientUnits="userSpaceOnUse">
<stop stop-color="white"/>
<stop offset="0.775687" stop-color="white" stop-opacity="0"/>
</linearGradient>
<linearGradient id="paint7_linear_258_2077" x1="696.5" y1="0" x2="696.5" y2="782" gradientUnits="userSpaceOnUse">
<stop stop-color="white"/>
<stop offset="0.775687" stop-color="white" stop-opacity="0"/>
</linearGradient>
<linearGradient id="paint8_linear_258_2077" x1="696.5" y1="0" x2="696.5" y2="782" gradientUnits="userSpaceOnUse">
<stop stop-color="white"/>
<stop offset="0.775687" stop-color="white" stop-opacity="0"/>
</linearGradient>
<linearGradient id="paint9_linear_258_2077" x1="696.5" y1="0" x2="696.5" y2="782" gradientUnits="userSpaceOnUse">
<stop stop-color="white"/>
<stop offset="0.775687" stop-color="white" stop-opacity="0"/>
</linearGradient>
<linearGradient id="paint10_linear_258_2077" x1="696.5" y1="0" x2="696.5" y2="782" gradientUnits="userSpaceOnUse">
<stop stop-color="white"/>
<stop offset="0.775687" stop-color="white" stop-opacity="0"/>
</linearGradient>
<linearGradient id="paint11_linear_258_2077" x1="696.5" y1="0" x2="696.5" y2="782" gradientUnits="userSpaceOnUse">
<stop stop-color="white"/>
<stop offset="0.775687" stop-color="white" stop-opacity="0"/>
</linearGradient>
<linearGradient id="paint12_linear_258_2077" x1="696.5" y1="0" x2="696.5" y2="782" gradientUnits="userSpaceOnUse">
<stop stop-color="white"/>
<stop offset="0.775687" stop-color="white" stop-opacity="0"/>
</linearGradient>
<linearGradient id="paint13_linear_258_2077" x1="696.5" y1="0" x2="696.5" y2="782" gradientUnits="userSpaceOnUse">
<stop stop-color="white"/>
<stop offset="0.775687" stop-color="white" stop-opacity="0"/>
</linearGradient>
<linearGradient id="paint14_linear_258_2077" x1="696.5" y1="0" x2="696.5" y2="782" gradientUnits="userSpaceOnUse">
<stop stop-color="white"/>
<stop offset="0.775687" stop-color="white" stop-opacity="0"/>
</linearGradient>
</defs>
</svg>
