<svg width="26" height="26" viewBox="0 0 26 26" fill="none" xmlns="http://www.w3.org/2000/svg">
<path d="M24.3333 18.3333H7.66667M7.66667 18.3333V1.66667M7.66667 18.3333L1.66667 24.3333M1.66667 7.66667H18.3333M18.3333 7.66667V24.3333M18.3333 7.66667L24.3333 1.66667M25 17.4497V2.06667C25 1.6933 25 1.50661 24.9273 1.36401C24.8634 1.23856 24.7614 1.13658 24.636 1.07266C24.4934 1 24.3067 1 23.9333 1H8.55032C8.2242 1 8.06114 1 7.90769 1.03684C7.77164 1.0695 7.64158 1.12337 7.52229 1.19648C7.38773 1.27894 7.27243 1.39424 7.04183 1.62484L1.62484 7.04183C1.39424 7.27243 1.27894 7.38773 1.19648 7.52229C1.12337 7.64158 1.0695 7.77164 1.03684 7.90769C1 8.06114 1 8.2242 1 8.55032V23.9333C1 24.3067 1 24.4934 1.07266 24.636C1.13658 24.7614 1.23856 24.8634 1.36401 24.9273C1.50661 25 1.6933 25 2.06667 25H17.4497C17.7758 25 17.9389 25 18.0923 24.9632C18.2284 24.9305 18.3584 24.8766 18.4777 24.8035C18.6123 24.7211 18.7276 24.6058 18.9582 24.3752L24.3752 18.9582C24.6058 18.7276 24.7211 18.6123 24.8035 18.4777C24.8766 18.3584 24.9305 18.2284 24.9632 18.0923C25 17.9389 25 17.7758 25 17.4497Z" stroke="white" stroke-linecap="round" stroke-linejoin="round"/>
</svg>
