<svg width="14" height="14" viewBox="0 0 14 14" fill="none" xmlns="http://www.w3.org/2000/svg">
<path d="M6.99999 1V4M6.99999 1C6.57203 1 6.15454 1.0448 5.75195 1.12998M6.99999 1C7.42794 1 7.84543 1.0448 8.24803 1.12998M6.99999 4C5.34313 4 4 5.34316 4 7.00001M6.99999 4C8.65684 4 10 5.34316 10 7.00001M6.99999 10V13M6.99999 10C8.65684 10 10 8.65687 10 7.00001M6.99999 10C5.34313 10 4 8.65687 4 7.00001M6.99999 13C7.4273 13 7.84419 12.9553 8.24622 12.8704M6.99999 13C6.57108 13 6.15269 12.955 5.74927 12.8695M2.75735 2.75736L4.87867 4.87868M9.12131 9.12132L11.2426 11.2426M1 7.00001H4M1 7.00001C1 7.428 1.0448 7.84551 1.12998 8.24813M1 7.00001C1 6.5714 1.04493 6.15327 1.13036 5.7501M10 7.00001H13M13 7.00001C13 6.57202 12.9552 6.15449 12.87 5.75187M13 7.00001C13 7.42783 12.9552 7.84518 12.8701 8.24766M2.75735 11.2426L4.87867 9.12132M9.12131 4.87868L11.2426 2.75736M10.268 1.96725C10.9726 2.42571 11.5749 3.02814 12.0333 3.73282M12.0316 10.2697C11.5732 10.9738 10.971 11.5756 10.2667 12.0336M3.73223 12.0329C3.02862 11.5751 2.42699 10.9738 1.96885 10.2705M1.96702 3.73232C2.42527 3.02797 3.02736 2.4258 3.73165 1.96746" stroke="white" stroke-opacity="0.4" stroke-linecap="round" stroke-linejoin="round"/>
</svg>
