<svg width="12" height="12" viewBox="0 0 12 12" fill="none" xmlns="http://www.w3.org/2000/svg">
<path d="M8.87442 7.88299C8.72168 8.05568 8.56141 8.22621 8.39381 8.39381C5.97002 10.8176 2.93342 11.7107 1.61135 10.3886C0.704978 9.48227 0.83977 7.77004 1.79516 6.00189M3.10484 4.14052C3.26379 3.9598 3.43099 3.78139 3.60619 3.60619C6.02998 1.18241 9.06658 0.289289 10.3886 1.61135C11.2956 2.51835 11.16 4.23232 10.2029 6.00176M8.39381 3.60619C10.8176 6.02998 11.7107 9.06658 10.3886 10.3886C9.06658 11.7107 6.02998 10.8176 3.60619 8.39381C1.18241 5.97002 0.289289 2.93342 1.61135 1.61135C2.93342 0.289289 5.97002 1.18241 8.39381 3.60619ZM6.55248 5.98822C6.55248 6.29983 6.29987 6.55244 5.98826 6.55244C5.67664 6.55244 5.42403 6.29983 5.42403 5.98822C5.42403 5.6766 5.67664 5.42399 5.98826 5.42399C6.29987 5.42399 6.55248 5.6766 6.55248 5.98822Z" stroke="white" stroke-linecap="round" stroke-linejoin="round"/>
</svg>
