<svg width="19" height="20" viewBox="0 0 19 20" fill="none" xmlns="http://www.w3.org/2000/svg">
<path d="M13.7 19H4.43137C3.82555 19 3.52265 19 3.38238 18.8802C3.26068 18.7763 3.19609 18.6203 3.20865 18.4608C3.22312 18.2769 3.43731 18.0627 3.86569 17.6343L12.3686 9.13137C12.7646 8.73536 12.9627 8.53735 13.191 8.46316C13.3918 8.3979 13.6082 8.3979 13.809 8.46316C14.0373 8.53735 14.2354 8.73535 14.6314 9.13137L18.5 13V14.2M13.7 19C15.3802 19 16.2202 19 16.862 18.673C17.4265 18.3854 17.8854 17.9265 18.173 17.362C18.5 16.7202 18.5 15.8802 18.5 14.2M13.7 19H5.3C3.61984 19 2.77976 19 2.13803 18.673C1.57354 18.3854 1.1146 17.9265 0.82698 17.362C0.5 16.7202 0.5 15.8802 0.5 14.2V5.8C0.5 4.11984 0.5 3.27976 0.82698 2.63803C1.1146 2.07354 1.57354 1.6146 2.13803 1.32698C2.77976 1 3.61984 1 5.3 1H13.7C15.3802 1 16.2202 1 16.862 1.32698C17.4265 1.6146 17.8854 2.07354 18.173 2.63803C18.5 3.27976 18.5 4.11984 18.5 5.8V14.2M8 6.5C8 7.60457 7.10457 8.5 6 8.5C4.89543 8.5 4 7.60457 4 6.5C4 5.39543 4.89543 4.5 6 4.5C7.10457 4.5 8 5.39543 8 6.5Z" stroke="white" stroke-opacity="0.4" stroke-linecap="round" stroke-linejoin="round"/>
</svg>
