<svg width="26" height="26" viewBox="0 0 26 26" fill="none" xmlns="http://www.w3.org/2000/svg">
<path d="M25 7.74751V1.41418M25 1.41418H18.6842M25 1.41418L18.6842 7.74751M11.7368 1H7.06316C4.94085 1 3.8797 1 3.06909 1.41418C2.35605 1.77849 1.77634 2.35982 1.41303 3.07484C1 3.8877 1 6.1518 1 8.28V18.92C1 21.0482 1 22.1123 1.41303 22.9252C1.77634 23.6402 2.35605 24.2215 3.06909 24.5858C3.8797 25 4.94085 25 7.06316 25H18.6842C19.8589 25 20.4463 25 20.9282 24.8705C22.2359 24.5191 23.2573 23.4949 23.6077 22.1835C23.7368 21.7003 23.7368 21.1113 23.7368 19.9333M10.4737 9.16667C10.4737 10.5658 9.34262 11.7 7.94737 11.7C6.55212 11.7 5.42105 10.5658 5.42105 9.16667C5.42105 7.76755 6.55212 6.63333 7.94737 6.63333C9.34262 6.63333 10.4737 7.76755 10.4737 9.16667ZM16.1453 13.4963L5.4604 23.2369C4.85941 23.7847 4.55891 24.0587 4.53233 24.296C4.50929 24.5017 4.58794 24.7057 4.74297 24.8423C4.92183 25 5.32793 25 6.14015 25H17.997C19.8149 25 20.7239 25 21.4378 24.6938C22.334 24.3093 23.048 23.5933 23.4314 22.6946C23.7368 21.9787 23.7368 21.0672 23.7368 19.2442C23.7368 18.6309 23.7368 18.3242 23.67 18.0386C23.5859 17.6797 23.4248 17.3435 23.1978 17.0534C23.0172 16.8227 22.7783 16.6311 22.3007 16.2479L18.7674 13.4134C18.2893 13.0299 18.0503 12.8381 17.7871 12.7705C17.5551 12.7108 17.311 12.7186 17.0832 12.7927C16.8248 12.8769 16.5983 13.0834 16.1453 13.4963Z" stroke="white" stroke-linecap="round" stroke-linejoin="round"/>
</svg>
