<svg width="26" height="26" viewBox="0 0 26 26" fill="none" xmlns="http://www.w3.org/2000/svg">
<path d="M7.4 25H17.3582C18.1659 25 18.5698 25 18.7568 24.8403C18.9191 24.7017 19.0052 24.4938 18.9885 24.281C18.9692 24.0358 18.6836 23.7503 18.1124 23.1791L7.97516 13.0418C7.44715 12.5138 7.18313 12.2498 6.87869 12.1509C6.6109 12.0639 6.32243 12.0639 6.05464 12.1509C5.7502 12.2498 5.48619 12.5138 4.95817 13.0418L1 17V18.6M7.4 25C5.15979 25 4.03968 25 3.18404 24.564C2.43139 24.1805 1.81947 23.5686 1.43597 22.816C1 21.9603 1 20.8402 1 18.6M7.4 25H18.6C20.8402 25 21.9603 25 22.816 24.564C23.5686 24.1805 24.1805 23.5686 24.564 22.816C25 21.9603 25 20.8402 25 18.6V10.6M1 18.6V7.4C1 5.15979 1 4.03969 1.43597 3.18404C1.81947 2.43139 2.43139 1.81947 3.18404 1.43597C4.03969 1 5.15979 1 7.4 1H15.4M25 3.93108L18.6706 10.2605C18.5066 10.4245 18.4246 10.5065 18.3321 10.5738C18.2501 10.6336 18.162 10.6847 18.0694 10.7263C17.9651 10.7732 17.8532 10.8037 17.6295 10.8647L14.2 11.8L15.1353 8.37054C15.1963 8.14679 15.2268 8.03492 15.2737 7.9306C15.3153 7.83797 15.3664 7.74992 15.4262 7.66785C15.4935 7.57543 15.5755 7.49343 15.7395 7.32944L22.0689 1" stroke="white" stroke-linecap="round" stroke-linejoin="round"/>
</svg>
