<svg width="26" height="26" viewBox="0 0 26 26" fill="none" xmlns="http://www.w3.org/2000/svg">
<path d="M1 1H1.01333M1 13H1.01333M1 25H1.01333M1 19H1.01333M1 7H1.01333M6.99667 1H7.00999M6.99667 13H7.00999M6.99667 25H7.00999M18.99 1H19.0033M18.99 13H19.0033M18.99 25H19.0033M12.9933 1H13.0067M12.9933 13H13.0067M12.9933 25H13.0067M12.9933 19H13.0067M12.9933 7H13.0067M24.9867 1H25M24.9867 13H25M24.9867 25H25M24.9867 19H25M24.9867 7H25" stroke="white" stroke-width="1.5" stroke-linecap="round" stroke-linejoin="round"/>
</svg>
