<svg width="26" height="26" viewBox="0 0 26 26" fill="none" xmlns="http://www.w3.org/2000/svg">
<path d="M10.6 1H15.4M25 10.6V15.4M20.2 25C21.316 25 21.8739 25 22.3317 24.8773C23.5741 24.5445 24.5445 23.5741 24.8773 22.3317C25 21.8739 25 21.316 25 20.2M25 5.8C25 4.68403 25 4.12605 24.8773 3.66825C24.5445 2.42592 23.5741 1.45555 22.3317 1.12267C21.8739 1 21.316 1 20.2 1M5.8 1C4.68403 1 4.12605 1 3.66825 1.12267C2.42592 1.45555 1.45555 2.42592 1.12267 3.66825C1 4.12605 1 4.68403 1 5.8M15.4 25L10.6 25M1 15.4V10.6M1 20.2C1 21.316 1 21.8739 1.12267 22.3317C1.45555 23.5741 2.42592 24.5445 3.66825 24.8773C4.12605 25 4.68403 25 5.8 25M4.6 25H9.4C11.3882 25 13 23.3882 13 21.4V4.6C13 2.61178 11.3882 1 9.4 1H4.6C2.61178 1 1 2.61177 1 4.6V21.4C1 23.3882 2.61178 25 4.6 25Z" stroke="white" stroke-linecap="round" stroke-linejoin="round"/>
</svg>
