<svg width="26" height="24" viewBox="0 0 26 24" fill="none" xmlns="http://www.w3.org/2000/svg">
<path d="M1 22.75C1 21.0637 1 20.2205 1.20669 19.5344C1.67205 17.9897 2.87255 16.7809 4.40663 16.3123C5.08799 16.1042 5.92533 16.1042 7.60001 16.1042H13H18.4C20.0747 16.1042 20.912 16.1042 21.5934 15.896C23.1275 15.4274 24.328 14.2186 24.7933 12.6739C25 11.9878 25 11.1446 25 9.45833M17.8 22.75V20.3333M17.2 6.4375C17.2 9.44055 14.7823 11.875 11.8 11.875C8.81766 11.875 6.4 9.44055 6.4 6.4375C6.4 3.43445 8.81766 1 11.8 1C14.7823 1 17.2 3.43445 17.2 6.4375Z" stroke="white" stroke-linecap="round" stroke-linejoin="round"/>
</svg>
