<svg width="26" height="26" viewBox="0 0 26 26" fill="none" xmlns="http://www.w3.org/2000/svg">
<path d="M21.2105 8.57895L25 4.78947M25 4.78947L21.2105 1M25 4.78947L17.4211 4.78947M13 2.26316H7.06316C4.94085 2.26316 3.8797 2.26316 3.06909 2.67619C2.35605 3.0395 1.77634 3.61921 1.41303 4.33225C1 5.14286 1 6.20401 1 8.32631V18.9368C1 21.0591 1 22.1203 1.41303 22.9309C1.77634 23.6439 2.35605 24.2237 3.06909 24.587C3.8797 25 4.94085 25 7.06316 25H18.6842C19.8589 25 20.4463 25 20.9282 24.8709C22.2359 24.5205 23.2573 23.499 23.6077 22.1913C23.7368 21.7094 23.7368 21.1221 23.7368 19.9474M10.4737 9.21053C10.4737 10.6058 9.34261 11.7368 7.94737 11.7368C6.55212 11.7368 5.42105 10.6058 5.42105 9.21053C5.42105 7.81528 6.55212 6.68421 7.94737 6.68421C9.34261 6.68421 10.4737 7.81528 10.4737 9.21053ZM16.1453 13.5282L5.4604 23.2417C4.85941 23.7881 4.55891 24.0613 4.53233 24.2979C4.50929 24.5031 4.58794 24.7065 4.74297 24.8428C4.92183 25 5.32793 25 6.14015 25H17.997C19.8149 25 20.7239 25 21.4378 24.6946C22.334 24.3112 23.048 23.5972 23.4314 22.7009C23.7368 21.987 23.7368 21.0781 23.7368 19.2602C23.7368 18.6485 23.7368 18.3427 23.67 18.0579C23.5859 17.6999 23.4248 17.3647 23.1978 17.0754C23.0172 16.8453 22.7783 16.6543 22.3007 16.2722L18.7674 13.4455C18.2893 13.063 18.0503 12.8718 17.7871 12.8043C17.5551 12.7449 17.311 12.7526 17.0832 12.8266C16.8248 12.9105 16.5983 13.1164 16.1453 13.5282Z" stroke="white" stroke-linecap="round" stroke-linejoin="round"/>
</svg>
