<svg width="26" height="26" viewBox="0 0 26 26" fill="none" xmlns="http://www.w3.org/2000/svg">
<path d="M13 1L15.0205 6.25329C15.5039 7.51025 15.7457 8.13874 16.1216 8.66739C16.4547 9.13592 16.8641 9.54528 17.3326 9.87843C17.8613 10.2543 18.4897 10.4961 19.7467 10.9795L25 13L19.7467 15.0205C18.4897 15.5039 17.8613 15.7457 17.3326 16.1216C16.8641 16.4547 16.4547 16.8641 16.1216 17.3326C15.7457 17.8613 15.5039 18.4897 15.0205 19.7467L13 25L10.9795 19.7467C10.4961 18.4897 10.2543 17.8613 9.87843 17.3326C9.54528 16.8641 9.13592 16.4547 8.66739 16.1216C8.13874 15.7457 7.51025 15.5039 6.25329 15.0205L1 13L6.25329 10.9795C7.51025 10.4961 8.13874 10.2543 8.66738 9.87843C9.13592 9.54528 9.54528 9.13592 9.87843 8.66739C10.2543 8.13874 10.4961 7.51025 10.9795 6.25329L13 1Z" stroke="white" stroke-linecap="round" stroke-linejoin="round"/>
</svg>
