<svg width="26" height="26" viewBox="0 0 26 26" fill="none" xmlns="http://www.w3.org/2000/svg">
<path d="M21.8351 24.6074L21.6081 24.1619H21.6081L21.8351 24.6074ZM24.3007 20.1998C24.3007 19.9236 24.0768 19.6998 23.8007 19.6998C23.5245 19.6998 23.3007 19.9236 23.3007 20.1998H24.3007ZM23.4083 23.0341L22.9628 22.8072H22.9628L23.4083 23.0341ZM4.16631 24.6074L3.93932 25.0529H3.93932L4.16631 24.6074ZM2.59306 23.0341L2.14756 23.2611H2.14756L2.59306 23.0341ZM25 17.0998C25.2761 17.0998 25.5 16.8759 25.5 16.5998C25.5 16.3236 25.2761 16.0998 25 16.0998V17.0998ZM1 16.0998C0.723858 16.0998 0.5 16.3236 0.5 16.5998C0.5 16.8759 0.723858 17.0998 1 17.0998V16.0998ZM18.0407 0.5C17.7645 0.5 17.5407 0.723858 17.5407 1C17.5407 1.27614 17.7645 1.5 18.0407 1.5V0.5ZM21.8351 1.39238L21.6081 1.83788V1.83788L21.8351 1.39238ZM23.3007 6.76001C23.3007 7.03615 23.5245 7.26001 23.8007 7.26001C24.0768 7.26001 24.3007 7.03615 24.3007 6.76001H23.3007ZM23.4083 2.96563L23.8538 2.73864V2.73864L23.4083 2.96563ZM7.96068 1.5C8.23682 1.5 8.46068 1.27615 8.46068 1C8.46068 0.723862 8.23682 0.500004 7.96068 0.500004V1.5ZM4.16631 1.39238L4.39331 1.83788L4.16631 1.39238ZM1.70068 6.76001C1.70068 7.03616 1.92454 7.26001 2.20068 7.26001C2.47683 7.26001 2.70068 7.03616 2.70068 6.76001H1.70068ZM2.59306 2.96564L2.14756 2.73864L2.59306 2.96564ZM2.7027 20.1965C2.70079 19.9204 2.47538 19.6981 2.19924 19.7C1.9231 19.7019 1.70081 19.9273 1.70273 20.2035L2.7027 20.1965ZM16.4418 13.1577L16.7953 13.5112V13.5112L16.4418 13.1577ZM6.23825 23.3612L6.5918 23.7148L6.23825 23.3612ZM19.1571 13.1577L19.5106 12.8041L19.1571 13.1577ZM21.8338 24.6077L21.6068 24.1622L21.8338 24.6077ZM23.407 23.0344L22.9615 22.8074L23.407 23.0344ZM5.4498 24.353L4.95134 24.3137L5.4498 24.353ZM5.65828 24.8563L5.33356 25.2365L5.65828 24.8563ZM17.4286 12.3558L17.5831 12.8314L17.4286 12.3558ZM18.1702 12.3558L18.3248 11.8803L18.1702 12.3558ZM7.95942 24.5C7.68328 24.5 7.45942 24.7239 7.45942 25C7.45942 25.2762 7.68328 25.5 7.95942 25.5V24.5ZM12.646 16.2464C12.4507 16.4417 12.4507 16.7582 12.646 16.9535C12.8412 17.1488 13.1578 17.1488 13.3531 16.9535L12.646 16.2464ZM22.2458 16.9535C22.441 17.1488 22.7576 17.1488 22.9529 16.9535C23.1482 16.7582 23.1482 16.4417 22.9529 16.2464L22.2458 16.9535ZM9.75306 20.5535C9.94833 20.3582 9.94833 20.0417 9.75306 19.8464C9.5578 19.6511 9.24122 19.6511 9.04596 19.8464L9.75306 20.5535ZM18.0407 24.9998V25.4998C19.0405 25.4998 19.8205 25.5002 20.4459 25.4491C21.0771 25.3975 21.5948 25.291 22.062 25.0529L21.8351 24.6074L21.6081 24.1619C21.3053 24.3162 20.9338 24.4059 20.3644 24.4524C19.7892 24.4994 19.057 24.4998 18.0407 24.4998V24.9998ZM23.8007 20.1998H23.3007C23.3007 21.2278 23.2994 21.6992 23.2562 22.0168C23.2193 22.2876 23.156 22.428 22.9628 22.8072L23.4083 23.0341L23.8538 23.2611C24.053 22.8702 24.1858 22.6015 24.2471 22.1517C24.3019 21.7487 24.3007 21.1879 24.3007 20.1998H23.8007ZM21.8351 24.6074L22.062 25.0529C22.8335 24.6598 23.4607 24.0326 23.8538 23.2611L23.4083 23.0341L22.9628 22.8072C22.6656 23.3905 22.1914 23.8647 21.6081 24.1619L21.8351 24.6074ZM18.0407 24.9998V24.4998H7.96068V24.9998V25.4998H18.0407V24.9998ZM7.96068 24.9998V24.4998C6.94434 24.4998 6.21215 24.4994 5.63692 24.4524C5.06754 24.4059 4.69612 24.3162 4.39331 24.1619L4.16631 24.6074L3.93932 25.0529C4.40659 25.291 4.92426 25.3975 5.55549 25.4491C6.18088 25.5002 6.96084 25.4998 7.96068 25.4998V24.9998ZM4.16631 24.6074L4.39331 24.1619C3.81001 23.8647 3.33577 23.3905 3.03856 22.8072L2.59306 23.0341L2.14756 23.2611C2.54064 24.0326 3.16785 24.6598 3.93932 25.0529L4.16631 24.6074ZM25 16.5998V16.0998H1V16.5998V17.0998H25V16.5998ZM18.0407 1V1.5C19.057 1.5 19.7892 1.50039 20.3644 1.54739C20.9338 1.59391 21.3053 1.68359 21.6081 1.83788L21.8351 1.39238L22.062 0.946874C21.5948 0.708785 21.0771 0.602281 20.4459 0.550708C19.8205 0.499611 19.0405 0.5 18.0407 0.5V1ZM23.8007 6.76001H24.3007C24.3007 5.76016 24.3011 4.98021 24.25 4.35482C24.1984 3.72359 24.0919 3.20591 23.8538 2.73864L23.4083 2.96563L22.9628 3.19263C23.1171 3.49544 23.2068 3.86686 23.2533 4.43625C23.3003 5.01147 23.3007 5.74366 23.3007 6.76001H23.8007ZM21.8351 1.39238L21.6081 1.83788C22.1914 2.13509 22.6656 2.60933 22.9628 3.19263L23.4083 2.96563L23.8538 2.73864C23.4607 1.96717 22.8335 1.33995 22.062 0.946874L21.8351 1.39238ZM7.96068 1V0.500004C6.96084 0.500004 6.18088 0.499615 5.55549 0.550712C4.92426 0.602285 4.40659 0.708789 3.93932 0.946877L4.16631 1.39238L4.39331 1.83788C4.69612 1.6836 5.06754 1.59391 5.63692 1.54739C6.21215 1.50039 6.94434 1.5 7.96068 1.5V1ZM2.20068 6.76001H2.70068C2.70068 5.74367 2.70107 5.01148 2.74807 4.43625C2.79459 3.86686 2.88428 3.49544 3.03856 3.19263L2.59306 2.96564L2.14756 2.73864C1.90947 3.20592 1.80296 3.72359 1.75139 4.35482C1.70029 4.98021 1.70068 5.76017 1.70068 6.76001H2.20068ZM4.16631 1.39238L3.93932 0.946877C3.16785 1.33996 2.54064 1.96718 2.14756 2.73864L2.59306 2.96564L3.03856 3.19263C3.33577 2.60933 3.81001 2.13509 4.39331 1.83788L4.16631 1.39238ZM2.20272 20.2L1.70273 20.2035C1.7123 21.5794 1.76051 22.5015 2.14756 23.2611L2.59306 23.0341L3.03856 22.8072C2.77667 22.2932 2.71258 21.6162 2.7027 20.1965L2.20272 20.2ZM6.91707 25V25.5H18.0394V25V24.5H6.91707V25ZM18.0394 25V25.5C19.0393 25.5 19.8192 25.5004 20.4446 25.4493C21.0758 25.3978 21.5935 25.2913 22.0608 25.0532L21.8338 24.6077L21.6068 24.1622C21.304 24.3164 20.9326 24.4061 20.3632 24.4526C19.788 24.4996 19.0558 24.5 18.0394 24.5V25ZM23.8007 20.1998H23.3007C23.3007 21.2277 23.2991 21.6991 23.2556 22.0165C23.2185 22.2875 23.1549 22.4279 22.9615 22.8074L23.407 23.0344L23.8526 23.2614C24.0516 22.8708 24.1848 22.6021 24.2464 22.1522C24.3016 21.7489 24.3007 21.1881 24.3007 20.1998H23.8007ZM21.8338 24.6077L22.0608 25.0532C22.8323 24.6601 23.4595 24.0329 23.8526 23.2614L23.407 23.0344L22.9615 22.8074C22.6643 23.3907 22.1901 23.8649 21.6068 24.1622L21.8338 24.6077ZM6.23825 23.3612L5.88469 23.0077C5.63466 23.2577 5.42273 23.469 5.27439 23.6461C5.13664 23.8107 4.97327 24.035 4.95134 24.3137L5.4498 24.353L5.94826 24.3922C5.94369 24.4502 5.91752 24.4357 6.04115 24.2881C6.15417 24.1531 6.32778 23.9788 6.5918 23.7148L6.23825 23.3612ZM6.91707 25V24.5C6.54369 24.5 6.2977 24.4996 6.12231 24.484C5.93048 24.467 5.93876 24.4383 5.98301 24.4761L5.65828 24.8563L5.33356 25.2365C5.54612 25.418 5.82031 25.4612 6.03404 25.4801C6.26423 25.5005 6.56347 25.5 6.91707 25.5V25ZM5.4498 24.353L4.95134 24.3137C4.92372 24.6648 5.06581 25.0078 5.33356 25.2365L5.65828 24.8563L5.98301 24.4761C5.95867 24.4553 5.94575 24.4241 5.94826 24.3922L5.4498 24.353ZM16.4418 13.1577L16.7953 13.5112C17.0388 13.2678 17.2004 13.1067 17.3342 12.9931C17.4636 12.8832 17.5339 12.8473 17.5831 12.8314L17.4286 12.3558L17.2741 11.8803C17.0493 11.9533 16.8638 12.0808 16.6871 12.2308C16.5148 12.377 16.32 12.5724 16.0882 12.8041L16.4418 13.1577ZM19.1571 13.1577L19.5106 12.8041C19.2788 12.5724 19.084 12.377 18.9118 12.2308C18.7351 12.0807 18.5495 11.9533 18.3248 11.8803L18.1702 12.3558L18.0157 12.8314C18.065 12.8473 18.1352 12.8832 18.2646 12.9931C18.3985 13.1067 18.5601 13.2678 18.8035 13.5112L19.1571 13.1577ZM17.4286 12.3558L17.5831 12.8314C17.7237 12.7857 17.8751 12.7857 18.0157 12.8314L18.1702 12.3558L18.3248 11.8803C17.9833 11.7694 17.6155 11.7694 17.2741 11.8803L17.4286 12.3558ZM18.0394 25V24.5H7.95942V25V25.5H18.0394V25ZM11.1994 8.80004H10.6994C10.6994 9.84938 9.84876 10.7 8.79942 10.7V11.2V11.7C10.401 11.7 11.6994 10.4017 11.6994 8.80004H11.1994ZM8.79942 11.2V10.7C7.75008 10.7 6.89942 9.84938 6.89942 8.80004H6.39942H5.89942C5.89942 10.4017 7.1978 11.7 8.79942 11.7V11.2ZM6.39942 8.80004H6.89942C6.89942 7.7507 7.75008 6.90004 8.79942 6.90004V6.40004V5.90004C7.1978 5.90004 5.89942 7.19841 5.89942 8.80004H6.39942ZM8.79942 6.40004V6.90004C9.84876 6.90004 10.6994 7.7507 10.6994 8.80004H11.1994H11.6994C11.6994 7.19841 10.401 5.90004 8.79942 5.90004V6.40004ZM16.4418 13.1577L16.0882 12.8041L12.646 16.2464L12.9995 16.5999L13.3531 16.9535L16.7953 13.5112L16.4418 13.1577ZM22.5993 16.5999L22.9529 16.2464L19.5106 12.8041L19.1571 13.1577L18.8035 13.5112L22.2458 16.9535L22.5993 16.5999ZM9.39951 20.1999L9.04596 19.8464L5.88469 23.0077L6.23825 23.3612L6.5918 23.7148L9.75306 20.5535L9.39951 20.1999Z" fill="white"/>
</svg>
