<svg width="26" height="26" viewBox="0 0 26 26" fill="none" xmlns="http://www.w3.org/2000/svg">
<path d="M7.66667 1H5.26667C3.77319 1 3.02646 1 2.45603 1.29065C1.95426 1.54631 1.54631 1.95426 1.29065 2.45603C1 3.02646 1 3.77319 1 5.26667V7.66667M7.66667 25H5.26667C3.77319 25 3.02646 25 2.45603 24.7094C1.95426 24.4537 1.54631 24.0457 1.29065 23.544C1 22.9735 1 22.2268 1 20.7333V18.3333M25 7.66667V5.26667C25 3.77319 25 3.02646 24.7094 2.45603C24.4537 1.95426 24.0457 1.54631 23.544 1.29065C22.9735 1 22.2268 1 20.7333 1H18.3333M25 18.3333V20.7333C25 22.2268 25 22.9735 24.7094 23.544C24.4537 24.0457 24.0457 24.4537 23.544 24.7094C22.9735 25 22.2268 25 20.7333 25H18.3333M9.58376 16.3333H16.512C17.5384 16.3333 18.1799 15.2222 17.6667 14.3333L14.2026 8.33333C13.6894 7.44445 12.4064 7.44445 11.8932 8.33334L8.42906 14.3333C7.91586 15.2222 8.55736 16.3333 9.58376 16.3333Z" stroke="white" stroke-linecap="round" stroke-linejoin="round"/>
</svg>
