<svg width="24" height="26" viewBox="0 0 24 26" fill="none" xmlns="http://www.w3.org/2000/svg">
<path d="M18.1111 22.6H17.8667C15.8131 22.6 14.7864 22.6 14.002 22.2076C13.3121 21.8625 12.7512 21.3118 12.3996 20.6344C12 19.8643 12 18.8562 12 16.84V9.16C12 7.14381 12 6.13572 12.3996 5.36563C12.7512 4.68825 13.3121 4.13752 14.002 3.79238C14.7864 3.4 15.8131 3.4 17.8667 3.4H18.1111M18.1111 22.6C18.1111 23.9255 19.2055 25 20.5556 25C21.9056 25 23 23.9255 23 22.6C23 21.2745 21.9056 20.2 20.5556 20.2C19.2055 20.2 18.1111 21.2745 18.1111 22.6ZM18.1111 3.4C18.1111 4.72548 19.2055 5.8 20.5556 5.8C21.9056 5.8 23 4.72548 23 3.4C23 2.07452 21.9056 1 20.5556 1C19.2055 1 18.1111 2.07452 18.1111 3.4ZM5.88889 13H12M5.88889 13C5.88889 14.3255 4.79447 15.4 3.44444 15.4C2.09442 15.4 1 14.3255 1 13C1 11.6745 2.09442 10.6 3.44444 10.6C4.79447 10.6 5.88889 11.6745 5.88889 13Z" stroke="white" stroke-linecap="round" stroke-linejoin="round"/>
</svg>
