<svg width="26" height="23" viewBox="0 0 26 23" fill="none" xmlns="http://www.w3.org/2000/svg">
<path d="M21.2843 22H22.4834C23.6361 22 24.2124 22 24.5301 21.7638C24.8068 21.558 24.9781 21.2434 24.9988 20.9029C25.0225 20.512 24.7028 20.0406 24.0635 19.0979L20.4906 13.8297C19.9623 13.0508 19.6982 12.6613 19.3653 12.5256C19.0742 12.4069 18.747 12.4069 18.456 12.5256C18.123 12.6613 17.8589 13.0508 17.3306 13.8297L16.4473 15.1321M21.2843 22L12.164 9.05021C11.6395 8.30545 11.3772 7.93308 11.0496 7.80218C10.7631 7.68766 10.4423 7.68766 10.1558 7.80218C9.82817 7.93308 9.56592 8.30545 9.0414 9.05021L1.98408 19.0708C1.31586 20.0196 0.981747 20.494 1.00077 20.8886C1.01734 21.2322 1.18732 21.5511 1.46528 21.76C1.78446 22 2.37143 22 3.54539 22H21.2843ZM23.658 4.5C23.658 6.433 22.0639 8 20.0975 8C18.131 8 16.5369 6.433 16.5369 4.5C16.5369 2.567 18.131 1 20.0975 1C22.0639 1 23.658 2.567 23.658 4.5Z" stroke="white" stroke-linecap="round" stroke-linejoin="round"/>
</svg>
